<svg xmlns="http://www.w3.org/2000/svg" xmlns:xlink="http://www.w3.org/1999/xlink" viewBox="0 0 261.66 261.66"><defs><style>.cls-1{fill:#fab416;}.cls-2{fill:url(#linear-gradient);}.cls-3{fill:#eda420;}.cls-4{fill:#fcb415;}</style><linearGradient id="linear-gradient" x1="44.64" y1="35.26" x2="223.11" y2="213.72" gradientTransform="translate(-3.69 7.04) rotate(-0.3)" gradientUnits="userSpaceOnUse"><stop offset="0" stop-color="#082b5f"/><stop offset="0.23" stop-color="#082d64"/><stop offset="0.49" stop-color="#093372"/><stop offset="0.77" stop-color="#0b3d89"/><stop offset="1" stop-color="#0d47a1"/></linearGradient></defs><title>Asset 2</title><g id="Layer_2" data-name="Layer 2"><g id="Layer_1-2" data-name="Layer 1"><path class="cls-1" d="M131.51,261.66C59.37,262,.37,203.65,0,131.51S58,.37,130.16,0s131.13,58,131.5,130.16-58,131.13-130.15,131.5"/><path class="cls-2" d="M130.18,4.58a126.26,126.26,0,1,0,126.91,125.6A126.39,126.39,0,0,0,130.18,4.58"/><polygon class="cls-3" points="207.59 85.81 213.08 170.93 186.75 140.48 207.59 85.81"/><polygon class="cls-4" points="186.75 140.48 70.88 175.76 207.59 85.81 186.75 140.48"/><polygon class="cls-3" points="54.07 175.85 48.58 90.73 74.92 121.19 54.07 175.85"/><polygon class="cls-4" points="74.92 121.19 190.78 85.9 54.07 175.85 74.92 121.19"/><path class="cls-1" d="M97.56,22.3l-3-8.23q-5.62,1.74-11,4l3,8.21A111.79,111.79,0,0,1,97.56,22.3Z"/><path class="cls-1" d="M130.83,17.33c2,0,3.92.05,5.85.15V8.72q-3.21-.15-6.48-.14c-1.75,0-3.49.08-5.22.16v8.74Q127.89,17.33,130.83,17.33Z"/><path class="cls-1" d="M62.46,40.24l-5.63-6.71q-4.66,3.55-9,7.53l5.64,6.72A115.23,115.23,0,0,1,62.46,40.24Z"/><path class="cls-1" d="M35.61,69.1,28,64.72q-3.16,4.91-5.86,10.13l7.59,4.38A111.57,111.57,0,0,1,35.61,69.1Z"/><path class="cls-1" d="M231.92,79.23l7.58-4.38q-2.69-5.22-5.86-10.13l-7.58,4.38A114,114,0,0,1,231.92,79.23Z"/><path class="cls-1" d="M175.11,26.29l3-8.23q-5.37-2.25-11-4l-3,8.24A112.55,112.55,0,0,1,175.11,26.29Z"/><path class="cls-1" d="M20.23,105.39l-8.63-1.52q-1.28,5.67-2,11.53l8.63,1.52A111.94,111.94,0,0,1,20.23,105.39Z"/><path class="cls-1" d="M243.46,116.92l8.62-1.52q-.74-5.87-2-11.53l-8.63,1.52A114.7,114.7,0,0,1,243.46,116.92Z"/><path class="cls-1" d="M208.16,47.78l5.63-6.71q-4.31-4-9-7.53l-5.61,6.7A115.08,115.08,0,0,1,208.16,47.78Z"/><path class="cls-1" d="M53.5,213.88l-5.62,6.71q4.29,4,9,7.53l5.62-6.7A113.05,113.05,0,0,1,53.5,213.88Z"/><path class="cls-1" d="M199.21,221.42l5.63,6.71c3.11-2.36,6.1-4.88,9-7.52l-5.64-6.73A112.91,112.91,0,0,1,199.21,221.42Z"/><path class="cls-1" d="M226.06,192.57l7.58,4.38q3.17-4.92,5.86-10.14l-7.58-4.38A115.59,115.59,0,0,1,226.06,192.57Z"/><path class="cls-1" d="M18.21,144.75l-8.63,1.52q.75,5.85,2,11.53l8.63-1.52A112.41,112.41,0,0,1,18.21,144.75Z"/><path class="cls-1" d="M164.11,239.37l3,8.23q5.63-1.75,11-4l-3-8.22A112.6,112.6,0,0,1,164.11,239.37Z"/><path class="cls-1" d="M243.46,144.75a115.2,115.2,0,0,1-2,11.53l8.62,1.52q1.27-5.67,2-11.53Z"/><path class="cls-1" d="M29.75,182.43l-7.59,4.38Q24.86,192,28,197l7.59-4.38A113.12,113.12,0,0,1,29.75,182.43Z"/><path class="cls-1" d="M86.55,235.37l-3,8.23q5.37,2.25,11,4l3-8.23A111.85,111.85,0,0,1,86.55,235.37Z"/><path class="cls-1" d="M130.83,244.34q-2.94,0-5.85-.15v8.75q3.22.15,6.48.14c1.76,0,3.49-.08,5.22-.16v-8.73C134.75,244.29,132.79,244.34,130.83,244.34Z"/></g></g></svg>