<svg xmlns="http://www.w3.org/2000/svg" viewBox="0 0 208.35 73.44" width="90.8" height="32"><defs><style>.cls-1{fill:#a4a8b4;}</style></defs><title>Asset 2</title><g id="Layer_2" data-name="Layer 2"><g id="Layer_1-2" data-name="Layer 1"><path class="cls-1" d="M116.39,50.44l-3.15,0L96,24.44l.13,26.11H93l-.16-31.21H96l17.25,26.07-.14-26.16,3.15,0Z"/><path class="cls-1" d="M139.16,46.42A6.6,6.6,0,0,0,141.8,42l3.28,0a9.88,9.88,0,0,1-3.65,6.27,11.82,11.82,0,0,1-7.61,2.43,12.37,12.37,0,0,1-6.15-1.45,10.4,10.4,0,0,1-4.21-4.28,13.74,13.74,0,0,1-1.54-6.62,13.69,13.69,0,0,1,1.47-6.63,10.31,10.31,0,0,1,4.17-4.33,12.4,12.4,0,0,1,6.13-1.51,12.12,12.12,0,0,1,6.15,1.45,10.09,10.09,0,0,1,4,3.95,11.12,11.12,0,0,1,1.38,5.4A13.13,13.13,0,0,1,145,38.9L125,39a10.23,10.23,0,0,0,1.29,5.12,7.61,7.61,0,0,0,3.18,3,9.32,9.32,0,0,0,4.22,1A8.92,8.92,0,0,0,139.16,46.42Zm-9.75-17.06a7.73,7.73,0,0,0-3.16,3,10.26,10.26,0,0,0-1.28,5l17.11-.09a8.85,8.85,0,0,0-1-5,7.16,7.16,0,0,0-3.12-3,9.82,9.82,0,0,0-8.55,0Z"/><path class="cls-1" d="M164.49,50.19l-6.7-9.85-6.11,9.92-3.41,0,7.82-12.5-8-11.71,3.55,0,6.52,9.59,6-9.65,3.41,0-7.79,12.14L168,50.18Z"/><path class="cls-1" d="M183.05,47.35l0,2.75h-2.88A7.26,7.26,0,0,1,175,48.48q-1.74-1.65-1.76-5.6l-.07-14.23-3.68,0,0-2.71,3.68,0,0-6.12h3.15l0,6.12,6.65,0V28.6l-6.65,0,.08,14.28c0,1.71.32,2.88.95,3.52a4.48,4.48,0,0,0,3.28.93Z"/><path class="cls-1" d="M188.71,25.86,197.23,46l7.66-20.21,3.46,0-14,35.72-3.55,0,4.82-11.73L185.25,25.88Z"/><path class="cls-1" d="M36.53,0A36.72,36.72,0,1,0,73.44,36.53,36.77,36.77,0,0,0,36.53,0Zm.37,72.15A35.44,35.44,0,1,1,72.15,36.53,35.48,35.48,0,0,1,36.9,72.15Z"/><polygon class="cls-1" points="58.26 24.08 59.8 47.97 52.41 39.42 58.26 24.08"/><polygon class="cls-1" points="52.41 39.42 19.89 49.33 58.26 24.08 52.41 39.42"/><polygon class="cls-1" points="15.18 49.35 13.63 25.46 21.02 34.01 15.18 49.35"/><polygon class="cls-1" points="21.02 34.01 53.54 24.11 15.18 49.35 21.02 34.01"/><path class="cls-1" d="M27.38,6.26,26.54,4c-1.05.32-2.08.7-3.09,1.12l.84,2.31A29.92,29.92,0,0,1,27.38,6.26Z"/><path class="cls-1" d="M36.72,4.86c.55,0,1.1,0,1.64,0V2.45c-.6,0-1.21,0-1.82,0s-1,0-1.46,0V4.9C35.62,4.88,36.17,4.86,36.72,4.86Z"/><path class="cls-1" d="M17.53,11.29,16,9.41c-.87.66-1.71,1.37-2.52,2.11L15,13.41A29.91,29.91,0,0,1,17.53,11.29Z"/><path class="cls-1" d="M10,19.39,7.86,18.16C7.27,19.08,6.72,20,6.22,21l2.13,1.23C8.85,21.26,9.4,20.31,10,19.39Z"/><path class="cls-1" d="M65.09,22.24,67.22,21q-.77-1.47-1.65-2.85l-2.13,1.23A31,31,0,0,1,65.09,22.24Z"/><path class="cls-1" d="M49.14,7.38,50,5.07A32.26,32.26,0,0,0,46.9,4l-.84,2.31A29.74,29.74,0,0,1,49.14,7.38Z"/><path class="cls-1" d="M5.68,29.58l-2.42-.43q-.36,1.59-.57,3.24l2.42.42A29.09,29.09,0,0,1,5.68,29.58Z"/><path class="cls-1" d="M68.33,32.81l2.42-.42q-.21-1.65-.57-3.24l-2.42.43C68,30.64,68.19,31.72,68.33,32.81Z"/><path class="cls-1" d="M58.42,13.41,60,11.53a32.09,32.09,0,0,0-2.52-2.12l-1.57,1.88A31.61,31.61,0,0,1,58.42,13.41Z"/><path class="cls-1" d="M15,60l-1.58,1.88c.8.74,1.64,1.45,2.51,2.11l1.58-1.88A31.82,31.82,0,0,1,15,60Z"/><path class="cls-1" d="M55.91,62.14,57.49,64c.87-.67,1.71-1.37,2.51-2.12L58.42,60C57.62,60.77,56.78,61.48,55.91,62.14Z"/><path class="cls-1" d="M63.44,54l2.13,1.23c.59-.92,1.14-1.86,1.65-2.84L65.09,51.2A29.59,29.59,0,0,1,63.44,54Z"/><path class="cls-1" d="M5.11,40.62l-2.42.43c.14,1.1.33,2.18.56,3.24l2.43-.43A28.86,28.86,0,0,1,5.11,40.62Z"/><path class="cls-1" d="M46.06,67.18l.84,2.31C48,69.16,49,68.78,50,68.36l-.84-2.3A32.26,32.26,0,0,1,46.06,67.18Z"/><path class="cls-1" d="M68.33,40.62q-.21,1.65-.57,3.24l2.42.43c.24-1.07.43-2.14.57-3.24Z"/><path class="cls-1" d="M8.35,51.2,6.22,52.43a30.86,30.86,0,0,0,1.65,2.84L10,54A31.76,31.76,0,0,1,8.35,51.2Z"/><path class="cls-1" d="M24.29,66.06l-.84,2.31c1,.42,2,.79,3.09,1.12l.84-2.31A32.44,32.44,0,0,1,24.29,66.06Z"/><path class="cls-1" d="M36.72,68.57c-.55,0-1.1,0-1.64,0V71c.6,0,1.2,0,1.82,0s1,0,1.46,0V68.53C37.82,68.56,37.27,68.57,36.72,68.57Z"/></g></g></svg>